<?xml version="1.0" encoding="utf-8"?>
<!-- Generator: Adobe Illustrator 26.0.3, SVG Export Plug-In . SVG Version: 6.00 Build 0)  -->
<svg version="1.1" id="Layer_1" xmlns="http://www.w3.org/2000/svg" xmlns:xlink="http://www.w3.org/1999/xlink" x="0px" y="0px"
	 viewBox="0 0 701.5 140" style="enable-background:new 0 0 701.5 140;" xml:space="preserve">
<style type="text/css">
	.st0{display:none;fill:#0F0000;}
	.st1{fill:#333F48;}
	.st2{fill:#0047BB;}
</style>
<rect x="0.9" y="-53" class="st0" width="699.8" height="247.1"/>
<g id="Layer_2_00000100365163226369386100000001332224212478673810_">
	<g id="Layer_1-2">
		<polyline class="st1" points="511,25.8 511,119.6 512.6,119.6 512.6,25.8 		"/>
		<path class="st1" d="M531.9,38.7h-5.2v-2h12.4v2h-5.2v13.9h-2.1L531.9,38.7z"/>
		<path class="st1" d="M549.8,53c-1.1,0-2.2-0.2-3.4-0.7c-1-0.4-1.9-1-2.6-1.8c-0.8-0.8-1.3-1.7-1.7-2.7c-0.8-2.1-0.8-4.5,0-6.6
			c0.4-1,1-1.9,1.7-2.7c0.8-0.8,1.7-1.3,2.6-1.8c2.1-0.9,4.6-0.9,6.7,0c1,0.4,1.9,1,2.6,1.8c0.8,0.8,1.3,1.7,1.7,2.7
			c0.8,2.1,0.8,4.5,0,6.6c-0.3,1-1,1.9-1.7,2.7c-0.8,0.8-1.7,1.3-2.6,1.8C552,52.7,550.9,53,549.8,53z M549.8,50.9
			c1.7,0,3.3-0.7,4.4-1.9c0.6-0.6,1-1.2,1.2-2c0.3-0.8,0.5-1.6,0.5-2.5c0-0.8-0.1-1.7-0.5-2.5c-0.2-0.8-0.7-1.5-1.2-2
			c-0.6-0.6-1.1-1-1.9-1.3c-1.6-0.7-3.4-0.7-4.9,0c-0.7,0.3-1.3,0.8-1.9,1.3c-0.6,0.6-1,1.2-1.3,2s-0.5,1.6-0.5,2.5
			c0,0.8,0.1,1.7,0.5,2.5c0.2,0.8,0.7,1.5,1.2,2C546.5,50.4,548.1,51,549.8,50.9z"/>
		<path class="st1" d="M562,36.6h5.6c0.9,0,1.7,0.1,2.5,0.4c0.6,0.2,1.1,0.6,1.6,1c0.3,0.4,0.7,0.9,0.8,1.5c0.1,0.4,0.2,1,0.2,1.6
			c0,0.4-0.1,1-0.2,1.5c-0.2,0.4-0.5,0.9-0.8,1.2c-0.3,0.4-0.8,0.7-1.2,1c-0.5,0.2-1,0.4-1.7,0.4l4.5,7.3h-2.7l-4-7h-2.4v7H562V36.6
			z M564.2,43.6h2.8c0.5,0,0.8,0,1.2-0.1s0.8-0.2,1.1-0.3c0.3-0.2,0.6-0.4,0.8-0.8c0.3-0.8,0.3-1.8,0-2.6c-0.2-0.3-0.5-0.6-0.8-0.8
			s-0.7-0.3-1.1-0.3c-0.5-0.1-0.8-0.1-1.2-0.1h-2.8V43.6z"/>
		<path class="st1" d="M576.8,36.6h5.6c0.9,0,1.7,0.1,2.5,0.4c0.6,0.2,1.1,0.6,1.6,1c0.3,0.4,0.7,0.9,0.8,1.5c0.1,0.4,0.2,1,0.2,1.6
			c0,0.4-0.1,1-0.2,1.5c-0.2,0.4-0.5,0.9-0.8,1.2c-0.3,0.4-0.8,0.7-1.2,1c-0.5,0.2-1,0.4-1.7,0.4l4.5,7.3h-2.7l-4.2-7h-2.4v7h-2.1
			L576.8,36.6L576.8,36.6z M578.9,43.6h2.8c0.4,0,0.8,0,1.2-0.1c0.5-0.1,0.8-0.2,1.1-0.3c0.3-0.2,0.6-0.4,0.8-0.8
			c0.3-0.8,0.3-1.8,0-2.6c-0.2-0.3-0.4-0.6-0.8-0.8c-0.3-0.2-0.7-0.3-1.1-0.3c-0.5-0.1-0.8-0.1-1.2-0.1h-2.8V43.6z"/>
		<path class="st1" d="M594.8,45.8l-6.1-9.1h2.8l4.4,7l4.5-7h2.6l-6.1,9.1v6.7h-2.1L594.8,45.8L594.8,45.8z"/>
		<path class="st1" d="M612.8,36.6h2.1v6.6h8.2v-6.6h2.1v16h-2.1v-7.3h-8.2v7.3h-2.1V36.6z"/>
		<path class="st1" d="M635.3,36.6h1.9l6.9,16h-2.5l-1.6-3.9h-7.5l-1.6,3.9h-2.5L635.3,36.6z M639.2,46.8l-2.9-7.3l0,0l-3,7.3H639.2
			z"/>
		<path class="st1" d="M647.1,36.6h5.6c0.9,0,1.7,0.1,2.5,0.4c0.6,0.2,1.1,0.6,1.6,1c0.3,0.4,0.7,0.9,0.8,1.5c0.1,0.4,0.2,1,0.2,1.6
			c0,0.4-0.1,1-0.2,1.5c-0.2,0.4-0.5,0.9-0.8,1.2c-0.3,0.4-0.8,0.7-1.2,1c-0.5,0.2-1,0.4-1.7,0.4l4.5,7.3h-2.7l-4-7h-2.4v7h-2.1
			L647.1,36.6z M649.2,43.6h2.9c0.4,0,0.8,0,1.2-0.1c0.3-0.1,0.8-0.2,1.1-0.3c0.3-0.2,0.6-0.4,0.8-0.8c0.3-0.8,0.3-1.8,0-2.6
			c-0.2-0.3-0.4-0.6-0.8-0.8c-0.3-0.2-0.8-0.3-1.1-0.3c-0.5-0.1-0.8-0.1-1.2-0.1h-2.8L649.2,43.6z"/>
		<path class="st1" d="M661.7,36.6h5.6c0.9,0,1.7,0.1,2.5,0.4c0.6,0.2,1.1,0.6,1.6,1c0.3,0.4,0.7,0.9,0.8,1.5c0.1,0.4,0.2,1,0.2,1.6
			c0,0.4-0.1,1-0.2,1.5c-0.2,0.4-0.5,0.9-0.8,1.2c-0.3,0.4-0.8,0.7-1.2,1c-0.5,0.2-1,0.4-1.7,0.4l4.5,7.3h-2.7l-4-7h-2.4v7h-2.1
			L661.7,36.6z M663.8,43.6h2.8c0.5,0,0.8,0,1.2-0.1c0.5-0.1,0.8-0.2,1.1-0.3c0.3-0.2,0.6-0.4,0.8-0.8c0.3-0.8,0.3-1.8,0-2.6
			c-0.2-0.3-0.5-0.6-0.8-0.8s-0.7-0.3-1.1-0.3c-0.5-0.1-0.8-0.1-1.2-0.1h-2.8V43.6z"/>
		<path class="st1" d="M676.3,36.6h2.1v16h-2.1V36.6z"/>
		<path class="st1" d="M684,49.2c0.3,0.6,0.9,1,1.5,1.3c0.6,0.2,1.2,0.4,1.9,0.4c0.3,0,0.8-0.1,1.1-0.2c0.3-0.1,0.7-0.2,1-0.4
			s0.6-0.4,0.8-0.8c0.2-0.3,0.3-0.7,0.3-1.1c0-0.6-0.2-1-0.6-1.3c-0.5-0.3-0.9-0.6-1.5-0.8s-1.2-0.4-1.9-0.7
			c-0.7-0.2-1.3-0.4-1.9-0.9c-0.6-0.3-1.1-0.9-1.5-1.5c-0.5-0.8-0.7-1.6-0.6-2.5c0-1.1,0.5-2.1,1.2-2.9c0.4-0.4,1-0.9,1.7-1.1
			c0.8-0.3,1.6-0.4,2.5-0.4s1.7,0.1,2.5,0.3s1.6,0.8,2.1,1.5l-1.8,1.6c-0.2-0.4-0.7-0.8-1.1-1c-0.6-0.2-1.1-0.3-1.7-0.3
			c-0.6,0-1,0.1-1.5,0.2c-0.3,0.1-0.7,0.3-0.9,0.6c-0.2,0.2-0.5,0.4-0.6,0.8c-0.1,0.2-0.1,0.6-0.1,0.8c0,0.6,0.2,1.1,0.6,1.6
			c0.5,0.3,0.9,0.7,1.5,0.9s1.2,0.4,1.9,0.6c0.7,0.2,1.2,0.4,1.9,0.8c0.6,0.3,1,0.8,1.5,1.3c0.5,0.7,0.7,1.5,0.6,2.2
			c0,0.7-0.1,1.5-0.4,2c-0.2,0.6-0.7,1.1-1.1,1.6c-0.6,0.4-1.1,0.8-1.8,1s-1.5,0.3-2.1,0.3c-1,0-2-0.2-2.9-0.6
			c-0.9-0.3-1.7-0.9-2.1-1.7L684,49.2z"/>
		<path class="st1" d="M528.6,64.8h2.1v16h-2.1V64.8z"/>
		<path class="st1" d="M535.7,64.8h2.8l8.8,13.2l0,0V64.8h2.1v16h-2.7l-8.9-13l0,0v13h-2.1L535.7,64.8L535.7,64.8z"/>
		<path class="st1" d="M557.9,66.8h-5.2v-2h12.4v2h-5.2v13.9h-2.1L557.9,66.8z"/>
		<path class="st1" d="M568.3,64.8h10.2v2h-8.1v4.7h7.5v2h-7.5v5.1h8.5v2h-10.7L568.3,64.8L568.3,64.8z"/>
		<path class="st1" d="M596.6,71.7v7.9c-0.5,0.2-0.9,0.4-1.3,0.7c-0.5,0.2-1,0.3-1.6,0.4s-1.1,0.2-1.6,0.2c-0.6,0.1-1,0.1-1.6,0.1
			c-1.2,0-2.5-0.2-3.6-0.7c-1-0.4-1.9-1-2.7-1.8c-0.7-0.8-1.3-1.7-1.7-2.7c-0.3-1-0.6-2.1-0.6-3.1c0-1.1,0.2-2.2,0.7-3.3
			c0.4-1,1-1.9,1.7-2.7c0.8-0.8,1.7-1.3,2.6-1.8c1.1-0.4,2.2-0.7,3.4-0.7s2.5,0.1,3.6,0.6c0.9,0.3,1.7,0.9,2.4,1.5l-1.6,1.6
			c-0.6-0.6-1.3-1-2.1-1.3c-0.8-0.2-1.6-0.3-2.4-0.3c-0.9,0-1.7,0.1-2.5,0.6c-0.7,0.3-1.3,0.8-1.9,1.3c-0.6,0.6-0.9,1.2-1.2,2
			s-0.5,1.6-0.5,2.5s0.1,1.7,0.5,2.5c0.3,0.8,0.8,1.5,1.3,2s1.2,1,1.9,1.3c0.8,0.3,1.6,0.4,2.5,0.4c0.7,0,1.5-0.1,2.1-0.2
			s1.2-0.3,1.7-0.7v-4.4h-3.5v-2L596.6,71.7L596.6,71.7L596.6,71.7z"/>
		<path class="st1" d="M601.5,64.8h5.6c0.9,0,1.7,0.1,2.5,0.4c0.6,0.2,1.1,0.6,1.6,1c0.3,0.4,0.7,0.9,0.8,1.5c0.1,0.4,0.2,1,0.2,1.6
			c0,0.4-0.1,1-0.2,1.5c-0.2,0.4-0.4,0.9-0.8,1.2c-0.3,0.4-0.8,0.7-1.2,1c-0.4,0.2-1,0.4-1.7,0.4l4.5,7.3h-2.7l-4.2-7h-2.4v7h-2.1
			L601.5,64.8L601.5,64.8z M603.7,71.7h2.8c0.4,0,0.8,0,1.2-0.1c0.5-0.1,0.8-0.2,1.1-0.3c0.3-0.2,0.6-0.4,0.8-0.8
			c0.3-0.8,0.3-1.8,0-2.6c-0.2-0.3-0.4-0.6-0.8-0.8c-0.3-0.2-0.7-0.3-1.1-0.3c-0.5-0.1-0.8-0.1-1.2-0.1h-2.8V71.7z"/>
		<path class="st1" d="M621.1,64.8h1.9l6.9,16h-2.5l-1.7-3.9h-7.5l-1.6,3.9h-2.5L621.1,64.8z M624.9,74.9l-2.9-7.3l0,0l-3,7.3H624.9
			z"/>
		<path class="st1" d="M634.1,66.8H629v-2h12.4v2h-5.2v13.9H634L634.1,66.8L634.1,66.8z"/>
		<path class="st1" d="M644.6,64.8h2.1v16h-2.1V64.8z"/>
		<path class="st1" d="M659,81.1c-1.1,0-2.2-0.2-3.4-0.7c-1-0.4-1.9-1-2.6-1.8c-0.8-0.8-1.3-1.7-1.7-2.7c-0.8-2.1-0.8-4.5,0-6.6
			c0.5-1,1-1.9,1.7-2.7c0.8-0.8,1.7-1.3,2.6-1.8c2.1-0.9,4.6-0.9,6.7,0c1,0.4,1.9,1,2.6,1.8c0.8,0.8,1.3,1.7,1.7,2.7
			c0.8,2.1,0.8,4.5,0,6.6c-0.3,1-1,1.9-1.7,2.7c-0.8,0.8-1.7,1.3-2.6,1.8S660.1,81.1,659,81.1z M659,79.1c1.7,0,3.3-0.7,4.3-1.9
			c0.6-0.6,0.9-1.2,1.2-2s0.5-1.6,0.5-2.5c0-0.8-0.1-1.7-0.5-2.5c-0.2-0.8-0.7-1.5-1.2-2c-0.6-0.6-1.1-1-1.9-1.3
			c-1.6-0.7-3.4-0.7-4.9,0c-0.7,0.3-1.3,0.8-1.9,1.3c-0.6,0.6-0.9,1.2-1.2,2s-0.4,1.6-0.4,2.5c0,0.8,0.1,1.7,0.4,2.5
			c0.2,0.8,0.7,1.5,1.2,2C655.7,78.4,657.3,79.2,659,79.1L659,79.1z"/>
		<path class="st1" d="M671.4,64.8h2.8L683,78l0,0V64.8h2.1v16h-2.7l-8.9-13l0,0v13h-2.1L671.4,64.8z"/>
		<path class="st1" d="M529.1,105.5c0.3,0.6,0.9,1,1.6,1.2c0.6,0.2,1.2,0.4,1.9,0.4c0.3,0,0.8-0.1,1.1-0.1c0.3-0.1,0.7-0.2,1-0.4
			c0.3-0.2,0.6-0.4,0.8-0.8c0.2-0.3,0.3-0.7,0.3-1.1c0-0.6-0.2-1-0.6-1.3c-0.5-0.3-0.9-0.6-1.5-0.8c-0.6-0.2-1.2-0.4-1.9-0.7
			c-0.7-0.2-1.3-0.4-1.9-0.9c-0.6-0.3-1.1-0.9-1.5-1.5c-0.4-0.8-0.7-1.6-0.6-2.5c0-1.1,0.5-2.1,1.2-2.9c0.4-0.4,1-0.9,1.7-1.1
			c0.8-0.3,1.6-0.4,2.5-0.4s1.7,0.1,2.5,0.3s1.6,0.8,2.1,1.5L536,96c-0.3-0.4-0.7-0.8-1.1-1c-0.6-0.2-1.1-0.3-1.7-0.3
			c-0.6,0-1,0.1-1.5,0.2c-0.3,0.1-0.7,0.3-1,0.6c-0.2,0.2-0.4,0.4-0.6,0.8c-0.1,0.2-0.1,0.6-0.1,0.8c0,0.6,0.2,1.1,0.6,1.6
			c0.4,0.3,0.9,0.7,1.5,0.9c0.6,0.2,1.2,0.4,1.9,0.6s1.2,0.4,1.9,0.8c0.6,0.3,1.1,0.8,1.5,1.3c0.5,0.7,0.7,1.5,0.6,2.2
			c0,0.7-0.1,1.5-0.5,2c-0.2,0.6-0.7,1.1-1.2,1.6c-0.6,0.4-1.1,0.8-1.8,1s-1.5,0.3-2.1,0.3c-1,0-2-0.2-2.9-0.6
			c-0.9-0.3-1.7-0.9-2.1-1.7L529.1,105.5z"/>
		<path class="st1" d="M549.3,109.2c-1.1,0-2.2-0.2-3.4-0.7c-1-0.4-1.9-1-2.6-1.8c-0.8-0.8-1.3-1.7-1.7-2.7c-0.8-2.1-0.8-4.5,0-6.6
			c0.5-1,1-1.9,1.7-2.7c0.8-0.8,1.7-1.3,2.6-1.8c2.1-0.9,4.6-0.9,6.7,0c1,0.4,1.9,1,2.6,1.8c0.8,0.8,1.3,1.7,1.7,2.7
			c0.8,2.1,0.8,4.5,0,6.6c-0.3,1-1,1.9-1.7,2.7c-0.8,0.8-1.7,1.3-2.6,1.8C551.6,109,550.4,109.2,549.3,109.2z M549.3,107.2
			c1.7,0,3.3-0.7,4.4-1.9c0.6-0.6,0.9-1.2,1.2-2s0.4-1.6,0.4-2.5c0-0.8-0.1-1.7-0.4-2.5c-0.2-0.8-0.7-1.5-1.2-2
			c-0.6-0.6-1.1-1-1.9-1.3c-1.6-0.7-3.4-0.7-4.9,0c-0.7,0.3-1.3,0.8-1.9,1.3c-0.6,0.6-0.9,1.2-1.2,2s-0.5,1.6-0.5,2.5
			c0,0.8,0.1,1.7,0.5,2.5c0.2,0.8,0.7,1.5,1.2,2C546.1,106.5,547.6,107.3,549.3,107.2L549.3,107.2z"/>
		<path class="st1" d="M561.6,92.9h2.1v13.9h7.3v2h-9.4L561.6,92.9L561.6,92.9z"/>
		<path class="st1" d="M576.1,92.9v9.8c0,0.6,0.1,1,0.2,1.6c0.1,0.6,0.3,1,0.7,1.5c0.3,0.4,0.8,0.9,1.2,1.1c1.2,0.6,2.6,0.6,3.8,0
			c0.4-0.2,0.9-0.7,1.2-1.1s0.6-0.9,0.7-1.5c0.1-0.4,0.2-1,0.2-1.6v-9.8h2.1V103c0,0.9-0.1,1.7-0.5,2.5c-0.3,0.8-0.8,1.3-1.3,2
			c-0.6,0.6-1.2,1-1.9,1.2c-1.6,0.6-3.3,0.6-4.8,0c-0.8-0.3-1.3-0.7-1.9-1.2c-0.6-0.6-1-1.2-1.3-2s-0.5-1.7-0.5-2.5V92.9H576.1z"/>
		<path class="st1" d="M594.3,94.9h-5.2v-2h12.4v2h-5.2v13.9h-2.1L594.3,94.9z"/>
		<path class="st1" d="M604.8,92.9h2.1v16h-2.1V92.9z"/>
		<path class="st1" d="M619.2,109.2c-1.1,0-2.2-0.2-3.4-0.7c-1-0.4-1.9-1-2.6-1.8c-0.8-0.8-1.3-1.7-1.7-2.7c-0.8-2.1-0.8-4.5,0-6.6
			c0.4-1,1-1.9,1.7-2.7c0.8-0.8,1.7-1.3,2.6-1.8c2.1-0.9,4.6-0.9,6.7,0c1,0.4,1.9,1,2.6,1.8c0.8,0.8,1.3,1.7,1.7,2.7
			c0.8,2.1,0.8,4.5,0,6.6c-0.3,1-1,1.9-1.7,2.7c-0.8,0.8-1.7,1.3-2.6,1.8C621.5,109,620.4,109.2,619.2,109.2z M619.2,107.2
			c1.7,0,3.3-0.7,4.4-1.9c0.6-0.6,0.9-1.2,1.2-2s0.4-1.6,0.4-2.5c0-0.8-0.1-1.7-0.4-2.5c-0.2-0.8-0.7-1.5-1.2-2
			c-0.6-0.6-1.1-1-1.9-1.3c-1.6-0.7-3.4-0.7-4.9,0c-0.7,0.3-1.3,0.8-1.9,1.3c-0.6,0.6-0.9,1.2-1.2,2s-0.5,1.6-0.5,2.5
			c0,0.8,0.1,1.7,0.5,2.5c0.2,0.8,0.7,1.5,1.2,2C616,106.5,617.6,107.3,619.2,107.2L619.2,107.2z"/>
		<path class="st1" d="M631.6,92.9h2.8l8.8,13.2l0,0V92.9h2.2v16h-2.7l-8.9-13l0,0v13h-2.1L631.6,92.9z"/>
		<path class="st1" d="M650.8,105.5c0.3,0.6,0.9,1,1.5,1.2s1.2,0.4,1.9,0.4c0.3,0,0.8-0.1,1.1-0.2s0.7-0.3,1-0.4
			c0.3-0.2,0.6-0.4,0.8-0.8c0.2-0.3,0.3-0.7,0.3-1.1c0-0.6-0.2-1-0.6-1.3c-0.5-0.3-0.9-0.6-1.5-0.8c-0.6-0.2-1.2-0.4-1.9-0.7
			c-0.7-0.2-1.3-0.4-1.9-0.9c-0.6-0.3-1.1-0.9-1.5-1.5c-0.5-0.8-0.7-1.6-0.6-2.5c0-1.1,0.5-2.1,1.2-2.9c0.4-0.4,1-0.9,1.7-1.1
			c0.8-0.3,1.6-0.4,2.5-0.4s1.7,0.1,2.5,0.3c0.8,0.2,1.6,0.8,2.1,1.5l-1.8,1.6c-0.2-0.4-0.7-0.8-1.1-1c-0.6-0.2-1.1-0.3-1.7-0.3
			c-0.6,0-1,0.1-1.5,0.2c-0.3,0.1-0.7,0.3-0.9,0.6c-0.2,0.2-0.5,0.4-0.6,0.8c-0.1,0.2-0.1,0.6-0.1,0.8c0,0.6,0.2,1.1,0.6,1.6
			c0.5,0.3,0.9,0.7,1.5,0.9c0.6,0.2,1.2,0.4,1.9,0.6s1.2,0.4,1.9,0.8c0.6,0.3,1,0.8,1.5,1.3c0.5,0.7,0.7,1.5,0.6,2.2
			c0,0.7-0.1,1.5-0.4,2c-0.2,0.6-0.7,1.1-1.1,1.6c-0.6,0.4-1.1,0.8-1.8,1s-1.5,0.3-2.1,0.3c-1,0-2-0.2-2.9-0.6
			c-0.9-0.3-1.7-0.9-2.1-1.7L650.8,105.5z"/>
		<path class="st1" d="M243.9,27.3L244,45h-22.5c-2.6,0-4.6,2-4.6,4.6v64.1c0,1.9-1.5,3.4-3.4,3.4H196c-1.9,0-3.4-1.5-3.4-3.4V49.6
			c0-2.6-2-4.6-4.6-4.6h-22.4l-0.1-17.7c0-1.9,1.5-3.4,3.4-3.4h71.5C242.2,23.9,243.8,25.4,243.9,27.3L243.9,27.3z"/>
		<path class="st1" d="M285.9,23.9v33.4c0,2.1,1.7,3.8,3.8,3.8l0,0h16.6c2.1,0,3.8-1.7,3.8-3.7l0,0V23.9H331c1.9,0,3.4,1.5,3.4,3.4
			v86.4c0,1.9-1.5,3.4-3.4,3.4h-20.9V85.9c0-2.1-1.7-3.8-3.8-3.8h-16.6c-2.1,0-3.8,1.7-3.8,3.8v31.3H265c-1.9,0-3.4-1.5-3.4-3.4
			V27.3c0-1.9,1.5-3.4,3.4-3.4H285.9z"/>
		<path class="st1" d="M391.4,96.2h9.3v17.5c0,1.9-1.5,3.4-3.4,3.4h-41.8c-1.9,0-3.4-1.5-3.4-3.4V96.2h9.3c1.6,0,2.8-1.2,2.8-2.8
			l0,0V47.6c0-1.5-1.2-2.6-2.7-2.6l0,0h-9.4V27.3c0-1.9,1.5-3.4,3.4-3.4h41.8c1.9,0,3.4,1.5,3.4,3.4v17.5h-9.6
			c-1.5,0-2.7,1.2-2.7,2.6l0,0v45.8C388.6,94.9,389.8,96.2,391.4,96.2L391.4,96.2z"/>
		<path class="st1" d="M458,60.5c-8.9-0.8-15-2.2-15-8v-2c0-3.8,3.1-7,7-7l0,0h12.4c3.8,0,7,3.1,7,7l0,0v2H489
			c1.9,0,3.4-1.5,3.4-3.4c0-0.1,0-0.2,0-0.4c-0.6-6.4-3.6-12.5-8.3-16.9c-5.6-5.2-12.9-8-20.6-7.9h-15.7c-6.7-0.1-13.4,2.1-18.7,6.4
			c-6.7,5.3-10.7,13.5-10.5,22.2c0,19.7,17.8,26,35.1,27.2c7,0.6,17.4,1,17.4,9.2v2.4c0,3.8-3.1,7-7,7h-15.3c-3.8,0-7-3.1-7-7V89
			h-20.7c-1.9,0-3.4,1.5-3.4,3.4c0,0.1,0,0.3,0,0.4c0.8,7,4.3,13.4,9.8,17.7c5.7,4.5,12.9,7,20.2,6.9h18c6.4,0,12.7-1.8,18.1-5.4
			c7.3-4.9,12.3-12.4,12.3-22.2C496.1,67.2,478.1,62.3,458,60.5z"/>
		<path class="st2" d="M133.2,65.1c-6.1-3-13.4-0.6-16.3,5.5l0,0c-0.1,0.2-0.2,0.4-0.3,0.8l-16-2.2c0,0.8-0.1,1.6-0.2,2.4l-8.2-1.1
			c0.3-2.9,0.1-5.8-0.8-8.7c-1.6-5.3-5.2-9.7-10-12.3L85,42c0.8,0.3,1.5,0.8,2.2,1.2l6.9-14.4c6.6,1.3,13-3,14.3-9.6s-3-13-9.6-14.3
			s-13,3-14.3,9.6c-0.8,4,0.4,8.2,3.5,11c0.2,0.2,0.4,0.3,0.7,0.6l-6.9,14.4c0.8,0.3,1.6,0.7,2.4,1L80.6,49
			c-4.7-2.2-10.1-2.6-15.2-1.1c-3.1,1-6.1,2.7-8.5,5.1l-6-5.7c0.6-0.6,1.5-1.3,2.1-1.9L41.3,34.1c3.3-5.8,1.1-13.3-4.7-16.5
			c-5.8-3.3-13.3-1.1-16.5,4.7S19,35.6,24.8,38.8c3.6,2,8,2,11.6,0.1c0.2-0.1,0.4-0.3,0.7-0.4l11.7,11.2c0.7-0.9,1.5-1.7,1.5-1.7
			l6.1,5.7c-5.1,5.4-6.9,13.2-4.6,20.2c0.3,1,0.7,2,1.1,2.9l-7.3,3.9c-0.3-0.8-0.8-1.6-1.1-2.4l-14.2,7.6C25.6,81.2,17.9,81,13,85.5
			c-4.9,4.6-5.2,12.3-0.7,17.2c4.6,4.9,12.3,5.2,17.2,0.7c3-2.8,4.4-6.9,3.7-10.9c-0.1-0.2-0.1-0.6-0.2-0.8L47.3,84
			c-0.4-0.7-0.9-1.5-1.2-2.1l7.3-3.9c4.2,7.6,12.6,11.8,21.1,10.7l1.5,8.2c-0.9,0.1-1.7,0.2-2.5,0.2l2.8,15.9
			c-6.1,2.8-8.8,10.1-6,16.2s10.1,8.8,16.2,6s8.8-10.1,6-16.2c-1.7-3.7-5.2-6.3-9.3-7c-0.2,0-0.6,0-0.8,0l-2.8-16
			c-0.8,0.2-1.7,0.4-2.5,0.6l-1.5-8.2c0.8-0.1,1.5-0.3,2.2-0.6c7.5-2.2,13.2-8.7,14.5-16.4l8.2,1.1c-0.1,0.9-0.3,1.8-0.6,2.7
			l16.1,2.2c0.8,6.6,6.9,11.5,13.6,10.7c6.7-0.8,11.5-6.9,10.7-13.6C139.4,70.5,136.8,67,133.2,65.1L133.2,65.1z"/>
	</g>
</g>
</svg>
